<mxfile host="app.diagrams.net" modified="2023-06-14T09:50:24.460Z" agent="Mozilla/5.0 (Windows NT 10.0; Win64; x64) AppleWebKit/537.36 (KHTML, like Gecko) Chrome/114.0.0.0 Safari/537.36" version="21.3.8" etag="Au1KpzMlY7SvoYvLU_Ir" type="github">
  <diagram name="第 1 页" id="Ya8i-4hp29aa39Dex5XT">
    <mxGraphModel>
      <root>
        <mxCell id="0" />
        <mxCell id="1" parent="0" />
      </root>
    </mxGraphModel>
  </diagram>
</mxfile>
